<?xml version="1.0" encoding="UTF-8" standalone="no"?><!-- Generator: Gravit.io --><svg xmlns="http://www.w3.org/2000/svg" xmlns:xlink="http://www.w3.org/1999/xlink" style="isolation:isolate" viewBox="0 0 70 70" width="70pt" height="70pt"><defs><clipPath id="_clipPath_Q4Y2NqSWIWrSmDbMgHDmKIBifn61TuIr"><rect width="70" height="70"/></clipPath></defs><g clip-path="url(#_clipPath_Q4Y2NqSWIWrSmDbMgHDmKIBifn61TuIr)"><clipPath id="_clipPath_jnfYdFDPPjHY3d2h0vYBttLj7v80wcbK"><rect x="5" y="5" width="60" height="60" transform="matrix(1,0,0,1,0,0)" fill="rgb(255,255,255)"/></clipPath><g clip-path="url(#_clipPath_jnfYdFDPPjHY3d2h0vYBttLj7v80wcbK)"><g><g><path d=" M 25.001 5 C 22.64 5 20.711 6.145 20.711 7.55 C 20.711 8.956 22.64 10.101 25.001 10.101 L 25.001 15.202 C 19.483 15.202 15 17.87 15 21.154 L 15 55.647 C 15 58.013 17.347 60.042 20.711 61.001 L 20.711 64.15 C 20.711 64.618 21.355 65 22.144 65 L 47.856 65 C 48.645 65 49.289 64.618 49.289 64.15 L 49.289 61.001 C 52.649 60.043 55 58.013 55 55.647 L 55 21.154 C 55 17.871 50.517 15.202 44.999 15.202 L 44.999 10.101 C 47.363 10.101 49.289 8.956 49.289 7.55 C 49.289 6.145 47.363 5 44.999 5 L 25.001 5 Z  M 25.001 6.7 L 44.999 6.7 C 45.787 6.7 46.426 7.082 46.426 7.55 C 46.426 8.019 45.787 8.4 44.999 8.4 L 25.001 8.4 C 24.216 8.4 23.569 8.019 23.569 7.55 C 23.569 7.082 24.216 6.7 25.001 6.7 Z  M 27.859 10.101 L 42.144 10.101 L 42.144 15.202 L 36.43 15.202 L 36.43 13.502 C 37.218 13.502 37.86 13.12 37.86 12.652 C 37.86 12.183 37.218 11.802 36.43 11.802 L 33.572 11.802 C 32.784 11.802 32.145 12.183 32.145 12.652 C 32.145 13.12 32.784 13.502 33.572 13.502 L 33.572 15.202 L 27.861 15.202 L 27.861 10.101 L 27.859 10.101 Z  M 25.001 16.902 L 44.999 16.902 C 48.939 16.902 52.145 18.809 52.145 21.154 L 52.145 55.647 C 52.145 57.989 48.939 59.898 44.999 59.898 L 25.001 59.898 C 21.061 59.898 17.858 57.99 17.858 55.647 L 17.858 21.154 C 17.858 18.81 21.059 16.902 25.001 16.902 Z  M 23.569 61.599 L 25.001 61.599 L 44.999 61.599 L 46.426 61.599 L 46.426 63.299 L 23.569 63.299 L 23.569 61.599 Z " fill="rgb(39,156,236)"/></g></g></g></g></svg>