<?xml version="1.0" encoding="UTF-8" standalone="no"?><!-- Generator: Gravit.io --><svg xmlns="http://www.w3.org/2000/svg" xmlns:xlink="http://www.w3.org/1999/xlink" style="isolation:isolate" viewBox="0 0 60 60" width="60pt" height="60pt"><defs><clipPath id="_clipPath_AchGIoS1yOgemmlujbI3veYUo07tpCTn"><rect width="60" height="60"/></clipPath></defs><g clip-path="url(#_clipPath_AchGIoS1yOgemmlujbI3veYUo07tpCTn)"><path d=" M 8.832 19 C 6.969 19 5.445 20.389 5.445 22.086 L 5.445 52.945 C 5.445 54.643 6.969 56.031 8.832 56.031 L 50.321 56.031 C 51.761 56.031 52.861 55.028 52.861 53.717 L 52.861 45.848 C 53.877 45.541 54.555 44.69 54.555 43.688 L 54.555 37.516 C 54.555 36.513 53.877 35.663 52.861 35.355 L 52.861 27.486 C 52.861 26.175 51.761 25.172 50.321 25.172 L 46.088 25.172 L 46.088 21.314 C 46.088 20.003 44.987 19 43.547 19 L 8.832 19 Z  M 8.832 20.543 L 43.547 20.543 C 44.057 20.543 44.394 20.85 44.394 21.314 L 44.394 25.172 L 8.832 25.172 C 7.899 25.172 7.139 24.479 7.139 23.629 L 7.139 22.086 C 7.139 21.236 7.899 20.543 8.832 20.543 Z  M 9.679 22.086 C 9.169 22.086 8.832 22.393 8.832 22.857 C 8.832 23.322 9.169 23.629 9.679 23.629 L 31.693 23.629 C 32.203 23.629 32.54 23.322 32.54 22.857 C 32.54 22.393 32.203 22.086 31.693 22.086 L 9.679 22.086 Z  M 35.08 22.086 C 34.571 22.086 34.234 22.393 34.234 22.857 C 34.234 23.322 34.571 23.629 35.08 23.629 L 38.467 23.629 C 38.977 23.629 39.314 23.322 39.314 22.857 C 39.314 22.393 38.977 22.086 38.467 22.086 L 35.08 22.086 Z  M 7.139 26.253 C 7.648 26.561 8.239 26.715 8.832 26.715 L 50.321 26.715 C 50.831 26.715 51.168 27.022 51.168 27.486 L 51.168 35.201 L 41.854 35.201 C 39.483 35.201 37.62 36.898 37.62 39.059 L 37.62 42.145 C 37.62 44.305 39.483 46.002 41.854 46.002 L 51.168 46.002 L 51.168 53.717 C 51.168 54.181 50.831 54.488 50.321 54.488 L 8.832 54.488 C 7.899 54.488 7.139 53.795 7.139 52.945 L 7.139 26.253 Z  M 10.526 28.258 C 10.016 28.258 9.679 28.565 9.679 29.029 L 9.679 30.572 C 9.679 31.037 10.016 31.344 10.526 31.344 C 11.035 31.344 11.372 31.037 11.372 30.572 L 11.372 29.029 C 11.372 28.565 11.035 28.258 10.526 28.258 Z  M 14.759 28.258 C 14.249 28.258 13.912 28.565 13.912 29.029 L 13.912 30.572 C 13.912 31.037 14.249 31.344 14.759 31.344 C 15.269 31.344 15.606 31.037 15.606 30.572 L 15.606 29.029 C 15.606 28.565 15.269 28.258 14.759 28.258 Z  M 18.993 28.258 C 18.483 28.258 18.146 28.565 18.146 29.029 L 18.146 30.572 C 18.146 31.037 18.483 31.344 18.993 31.344 C 19.502 31.344 19.839 31.037 19.839 30.572 L 19.839 29.029 C 19.839 28.565 19.502 28.258 18.993 28.258 Z  M 23.226 28.258 C 22.717 28.258 22.38 28.565 22.38 29.029 L 22.38 30.572 C 22.38 31.037 22.717 31.344 23.226 31.344 C 23.736 31.344 24.073 31.037 24.073 30.572 L 24.073 29.029 C 24.073 28.565 23.736 28.258 23.226 28.258 Z  M 27.46 28.258 C 26.95 28.258 26.613 28.565 26.613 29.029 L 26.613 30.572 C 26.613 31.037 26.95 31.344 27.46 31.344 C 27.97 31.344 28.307 31.037 28.307 30.572 L 28.307 29.029 C 28.307 28.565 27.97 28.258 27.46 28.258 Z  M 31.693 28.258 C 31.184 28.258 30.847 28.565 30.847 29.029 L 30.847 30.572 C 30.847 31.037 31.184 31.344 31.693 31.344 C 32.203 31.344 32.54 31.037 32.54 30.572 L 32.54 29.029 C 32.54 28.565 32.203 28.258 31.693 28.258 Z  M 35.927 28.258 C 35.417 28.258 35.08 28.565 35.08 29.029 L 35.08 30.572 C 35.08 31.037 35.417 31.344 35.927 31.344 C 36.437 31.344 36.774 31.037 36.774 30.572 L 36.774 29.029 C 36.774 28.565 36.437 28.258 35.927 28.258 Z  M 40.161 28.258 C 39.651 28.258 39.314 28.565 39.314 29.029 L 39.314 30.572 C 39.314 31.037 39.651 31.344 40.161 31.344 C 40.67 31.344 41.007 31.037 41.007 30.572 L 41.007 29.029 C 41.007 28.565 40.67 28.258 40.161 28.258 Z  M 44.394 28.258 C 43.884 28.258 43.547 28.565 43.547 29.029 L 43.547 30.572 C 43.547 31.037 43.884 31.344 44.394 31.344 C 44.904 31.344 45.241 31.037 45.241 30.572 L 45.241 29.029 C 45.241 28.565 44.904 28.258 44.394 28.258 Z  M 48.628 28.258 C 48.118 28.258 47.781 28.565 47.781 29.029 L 47.781 30.572 C 47.781 31.037 48.118 31.344 48.628 31.344 C 49.137 31.344 49.474 31.037 49.474 30.572 L 49.474 29.029 C 49.474 28.565 49.137 28.258 48.628 28.258 Z  M 41.854 36.744 L 52.015 36.744 C 52.524 36.744 52.861 37.051 52.861 37.516 L 52.861 43.688 C 52.861 44.152 52.524 44.459 52.015 44.459 L 41.854 44.459 C 40.415 44.459 39.314 43.456 39.314 42.145 L 39.314 39.059 C 39.314 37.747 40.415 36.744 41.854 36.744 Z  M 43.547 38.287 C 42.108 38.287 41.007 39.29 41.007 40.602 C 41.007 41.913 42.108 42.916 43.547 42.916 C 44.987 42.916 46.088 41.913 46.088 40.602 C 46.088 39.29 44.987 38.287 43.547 38.287 Z  M 43.547 39.52 C 44.225 39.52 44.735 39.984 44.735 40.602 C 44.735 41.219 44.226 41.683 43.547 41.683 C 43.23 41.69 42.924 41.578 42.7 41.374 C 42.475 41.17 42.353 40.89 42.36 40.602 C 42.36 39.984 42.869 39.52 43.547 39.52 Z  M 10.526 49.859 C 10.016 49.859 9.679 50.166 9.679 50.631 L 9.679 52.174 C 9.679 52.638 10.016 52.945 10.526 52.945 C 11.035 52.945 11.372 52.638 11.372 52.174 L 11.372 50.631 C 11.372 50.166 11.035 49.859 10.526 49.859 Z  M 14.759 49.859 C 14.249 49.859 13.912 50.166 13.912 50.631 L 13.912 52.174 C 13.912 52.638 14.249 52.945 14.759 52.945 C 15.269 52.945 15.606 52.638 15.606 52.174 L 15.606 50.631 C 15.606 50.166 15.269 49.859 14.759 49.859 Z  M 18.993 49.859 C 18.483 49.859 18.146 50.166 18.146 50.631 L 18.146 52.174 C 18.146 52.638 18.483 52.945 18.993 52.945 C 19.502 52.945 19.839 52.638 19.839 52.174 L 19.839 50.631 C 19.839 50.166 19.502 49.859 18.993 49.859 Z  M 23.226 49.859 C 22.717 49.859 22.38 50.166 22.38 50.631 L 22.38 52.174 C 22.38 52.638 22.717 52.945 23.226 52.945 C 23.736 52.945 24.073 52.638 24.073 52.174 L 24.073 50.631 C 24.073 50.166 23.736 49.859 23.226 49.859 Z  M 27.46 49.859 C 26.95 49.859 26.613 50.166 26.613 50.631 L 26.613 52.174 C 26.613 52.638 26.95 52.945 27.46 52.945 C 27.97 52.945 28.307 52.638 28.307 52.174 L 28.307 50.631 C 28.307 50.166 27.97 49.859 27.46 49.859 Z  M 31.693 49.859 C 31.184 49.859 30.847 50.166 30.847 50.631 L 30.847 52.174 C 30.847 52.638 31.184 52.945 31.693 52.945 C 32.203 52.945 32.54 52.638 32.54 52.174 L 32.54 50.631 C 32.54 50.166 32.203 49.859 31.693 49.859 Z  M 35.927 49.859 C 35.417 49.859 35.08 50.166 35.08 50.631 L 35.08 52.174 C 35.08 52.638 35.417 52.945 35.927 52.945 C 36.437 52.945 36.774 52.638 36.774 52.174 L 36.774 50.631 C 36.774 50.166 36.437 49.859 35.927 49.859 Z  M 40.161 49.859 C 39.651 49.859 39.314 50.166 39.314 50.631 L 39.314 52.174 C 39.314 52.638 39.651 52.945 40.161 52.945 C 40.67 52.945 41.007 52.638 41.007 52.174 L 41.007 50.631 C 41.007 50.166 40.67 49.859 40.161 49.859 Z  M 44.394 49.859 C 43.884 49.859 43.547 50.166 43.547 50.631 L 43.547 52.174 C 43.547 52.638 43.884 52.945 44.394 52.945 C 44.904 52.945 45.241 52.638 45.241 52.174 L 45.241 50.631 C 45.241 50.166 44.904 49.859 44.394 49.859 Z  M 48.628 49.859 C 48.118 49.859 47.781 50.166 47.781 50.631 L 47.781 52.174 C 47.781 52.638 48.118 52.945 48.628 52.945 C 49.137 52.945 49.474 52.638 49.474 52.174 L 49.474 50.631 C 49.474 50.166 49.137 49.859 48.628 49.859 Z " fill="rgb(255,255,255)"/><g><path d=" M 24.504 11.14 L 30.151 20.543 L 35.496 10.965 L 24.504 11.14 Z " fill="rgb(255,255,255)"/><rect x="22.617" y="4.036" width="14.765" height="3.665" transform="matrix(0.016,1,-1,0.016,35.39,-24.222)" fill="rgb(255,255,255)"/></g></g></svg>