<?xml version="1.0" encoding="UTF-8" standalone="no"?><!-- Generator: Gravit.io --><svg xmlns="http://www.w3.org/2000/svg" xmlns:xlink="http://www.w3.org/1999/xlink" style="isolation:isolate" viewBox="0 0 60 60" width="60pt" height="60pt"><defs><clipPath id="_clipPath_gTLEV6jz4dzinPgxpSlqMiQcv1gD3oOs"><rect width="60" height="60"/></clipPath></defs><g clip-path="url(#_clipPath_gTLEV6jz4dzinPgxpSlqMiQcv1gD3oOs)"><path d=" M 17.885 12 C 14.919 12 12.5 14.488 12.5 17.538 L 12.5 42.462 C 12.5 45.512 14.919 48 17.885 48 L 35.385 48 C 36.816 48 38.804 45.875 41.106 43.457 C 41.426 43.122 41.743 42.802 42.074 42.462 C 42.405 42.121 42.758 41.753 43.083 41.423 C 45.434 39.055 47.5 37.009 47.5 35.538 L 47.5 17.538 C 47.5 14.488 45.081 12 42.115 12 L 17.885 12 Z  M 17.885 14.769 L 42.115 14.769 C 43.602 14.769 44.808 16.009 44.808 17.538 L 44.808 35.538 C 44.808 36.918 43.456 36.923 42.115 36.923 L 38.077 36.923 C 37.337 36.923 36.731 37.546 36.731 38.308 L 36.731 42.549 C 36.731 43.776 36.736 44.976 35.763 45.231 L 17.885 45.231 C 16.398 45.231 15.192 43.991 15.192 42.462 L 15.192 17.538 C 15.192 16.009 16.398 14.769 17.885 14.769 Z  M 21.671 23.077 C 20.93 23.146 20.382 23.829 20.45 24.592 C 20.519 25.353 21.181 25.917 21.923 25.846 L 38.077 25.846 C 38.562 25.852 39.013 25.591 39.26 25.159 C 39.502 24.727 39.502 24.196 39.26 23.764 C 39.013 23.332 38.56 23.071 38.077 23.077 L 21.671 23.077 Z  M 21.671 30 C 20.93 30.069 20.382 30.752 20.45 31.515 C 20.519 32.276 21.181 32.84 21.923 32.769 L 35.385 32.769 C 35.869 32.775 36.32 32.514 36.568 32.082 C 36.81 31.65 36.81 31.119 36.568 30.687 C 36.32 30.255 35.868 29.994 35.385 30 L 21.671 30 Z " fill="rgb(255,255,255)"/></g></svg>