<?xml version="1.0" encoding="UTF-8" standalone="no"?><!-- Generator: Gravit.io --><svg xmlns="http://www.w3.org/2000/svg" xmlns:xlink="http://www.w3.org/1999/xlink" style="isolation:isolate" viewBox="0 0 60 60" width="60pt" height="60pt"><defs><clipPath id="_clipPath_h5v5ZiitZifMiTLwABAKRT6SRufCQvhq"><rect width="60" height="60"/></clipPath></defs><g clip-path="url(#_clipPath_h5v5ZiitZifMiTLwABAKRT6SRufCQvhq)"><path d=" M 14.262 34.917 C 14.262 35.315 14.321 35.687 14.418 36.042 C 14.484 36.321 14.578 36.594 14.699 36.855 C 14.703 36.866 14.723 36.874 14.731 36.885 C 14.871 37.155 15.047 37.401 15.231 37.635 C 15.239 37.647 15.254 37.655 15.262 37.667 C 15.45 37.897 15.637 38.101 15.856 38.292 C 15.867 38.3 15.876 38.315 15.887 38.323 C 16.121 38.521 16.372 38.699 16.637 38.855 C 16.46 39.304 16.354 39.779 16.324 40.261 C 16.283 40.945 16.435 41.627 16.762 42.23 C 17.387 43.366 18.336 44.167 19.043 45.01 C 19.766 45.874 21.664 48.456 23.324 50.76 C 24.984 53.065 26.449 55.105 26.449 55.105 C 26.62 55.459 26.985 55.68 27.379 55.667 C 27.774 55.657 28.125 55.414 28.276 55.049 C 28.426 54.684 28.347 54.264 28.074 53.979 C 28.074 53.979 26.617 51.886 24.949 49.573 C 23.282 47.261 21.442 44.733 20.574 43.698 C 19.731 42.694 18.875 41.921 18.512 41.261 C 18.215 40.718 18.129 40.296 18.512 39.511 C 18.646 39.529 18.782 39.539 18.918 39.542 L 30.824 39.542 L 31.449 40.917 C 31.565 41.285 31.882 41.554 32.264 41.608 C 32.646 41.662 33.025 41.492 33.239 41.171 C 33.449 40.851 33.461 40.437 33.262 40.105 L 29.012 30.855 L 29.012 30.823 C 28.309 29.507 27.664 28.128 27.449 27.073 C 27.235 26.019 27.324 25.491 27.919 25.042 C 28.614 24.515 29.379 24.394 30.231 24.636 C 31.082 24.878 32.008 25.522 32.793 26.636 C 34.442 28.968 35.668 32.573 35.668 32.573 L 35.731 32.761 L 35.856 32.917 C 37.434 34.772 38.934 35.847 39.949 37.198 C 40.965 38.55 41.637 40.222 41.637 43.667 L 41.637 43.73 L 42.262 54.604 C 42.297 55.156 42.773 55.575 43.325 55.542 C 43.875 55.507 44.297 55.03 44.262 54.479 L 43.637 43.667 L 43.637 43.604 C 43.629 41.05 43.207 39.194 42.543 37.73 C 43.293 37.476 43.933 36.952 44.2 36.136 C 44.543 35.093 44.499 33.961 44.074 32.948 C 43.903 32.546 43.668 32.178 43.418 31.855 C 44.145 31.538 44.825 30.972 45.137 30.105 C 45.465 29.195 45.539 28.288 45.325 27.48 C 45.11 26.67 44.653 26.01 44.075 25.386 C 43.977 25.28 43.903 25.21 43.825 25.136 C 43.969 24.925 44.067 24.683 44.137 24.417 C 44.477 23.12 44.106 21.604 42.949 20.448 C 41.934 19.433 40.375 18.823 38.262 18.605 L 38.262 9.885 C 38.244 7.82 36.785 6.048 34.762 5.635 C 34.477 5.577 34.188 5.542 33.887 5.542 L 18.824 5.542 C 18.672 5.542 18.535 5.558 18.387 5.573 C 17.945 5.62 17.512 5.737 17.106 5.917 C 16.831 6.035 16.569 6.182 16.325 6.355 C 16.317 6.358 16.301 6.351 16.293 6.355 C 15.296 7.051 14.604 8.102 14.356 9.292 C 14.293 9.579 14.261 9.873 14.262 10.167 L 14.262 34.917 Z  M 19.262 37.542 L 19.262 7.542 L 23.262 7.542 L 23.262 37.542 L 19.262 37.542 Z  M 38.262 32.542 L 38.262 31.854 C 38.965 31.914 40.024 32.014 40.7 32.136 C 40.782 32.151 40.864 32.156 40.95 32.167 C 40.986 32.223 41.027 32.275 41.074 32.323 C 41.586 32.753 42.012 33.249 42.231 33.761 C 42.449 34.272 42.528 34.784 42.293 35.511 C 42.235 35.691 41.946 35.894 41.481 35.917 C 40.496 34.627 39.379 33.679 38.262 32.542 Z  M 38.262 29.823 L 38.262 26.073 C 38.727 26.143 39.258 26.206 39.793 26.261 C 40.446 26.327 41.227 26.386 42.012 26.229 C 42.086 26.284 42.102 26.308 42.2 26.386 C 42.407 26.55 42.707 26.839 42.606 26.729 C 43.059 27.218 43.316 27.636 43.418 28.011 C 43.52 28.386 43.492 28.781 43.262 29.417 C 43.141 29.757 42.922 29.933 42.512 30.073 C 42.102 30.213 41.52 30.253 41.043 30.167 C 40.098 29.995 38.891 29.874 38.262 29.823 Z  M 38.262 24.042 L 38.262 20.636 C 39.946 20.839 40.992 21.304 41.543 21.854 C 42.285 22.597 42.379 23.226 42.2 23.917 C 42.137 24.147 42.082 24.167 41.668 24.261 C 41.254 24.354 40.606 24.354 40.012 24.292 C 39.372 24.226 38.75 24.128 38.262 24.042 Z " fill="rgb(255,255,255)"/></g></svg>